{"asset":{"version":"2.0","generator":"THREE.GLTFExporter r169"},"scenes":[{"name":"AuxScene","nodes":[0]}],"scene":0,"nodes":[{"mesh":0}],"bufferViews":[{"buffer":0,"byteOffset":0,"byteLength":25560,"target":34962,"byteStride":12},{"buffer":0,"byteOffset":25560,"byteLength":25560,"target":34962,"byteStride":12},{"buffer":0,"byteOffset":51120,"byteLength":25560,"target":34962,"byteStride":12},{"buffer":0,"byteOffset":76680,"byteLength":17592,"target":34963}],"buffers":[{"byteLength":94272,"uri":"data:application/octet-stream;base64,"}],"accessors":[{"bufferView":0,"componentType":5126,"count":2130,"max":[0.1489361673593521,0.24468085169792175,0.5],"min":[-0.1489361673593521,-0.24468085169792175,-0.5],"type":"VEC3"},{"bufferView":1,"componentType":5126,"count":2130,"max":[1,1,1],"min":[-1,-1,-1],"type":"VEC3"},{"bufferView":2,"componentType":5126,"count":2130,"max":[1,1,1],"min":[0,0,0],"type":"VEC3"},{"bufferView":3,"componentType":5125,"count":4398,"max":[2129],"min":[0],"type":"SCALAR"}],"materials":[{"pbrMetallicRoughness":{"metallicFactor":1,"roughnessFactor":1}}],"meshes":[{"primitives":[{"mode":4,"attributes":{"POSITION":0,"NORMAL":1,"COLOR_0":2},"indices":3,"material":0}]}]}